# xmcd CD database file
#
# Track frame offsets:
#	217
#	11822
#	23592
#	34635
#	46097
#	57027
#	68177
#	78772
#	89107
#	102125
#	113257
#	123540
#	135067
#	144165
#	155907
#	167662
#	180062
#	190665
#	201722
#	213437
#	223615
#	234220
#
# Disc length: 3256 seconds
#
# Revision: 0
# Processed by: cddbd v1.4PL0 Copyright (c) Steve Scherf et al.
# Submitted via: CDex 1.40Release
#
DISCID=180cb616
DTITLE=Patsy Cline - TKO Members Edition
DYEAR=1996
DGENRE=Country
TTITLE0=Let the Teardrops Fall
TTITLE1=Walkin' After Midnight
TTITLE2=I Cried all the Way to the Altar
TTITLE3=I've Loved and Lost Again
TTITLE4=I Can't Forget You
TTITLE5=Hungry for Love
TTITLE6=I can see an Angel
TTITLE7=Walking Dream
TTITLE8=If I could see the World
TTITLE9=Hidin' Out
TTITLE10=Too Many Secrets
TTITLE11=Never no More
TTITLE12=I Love you Honey
TTITLE13=Today, Tomorrow, and Forever
TTITLE14=If I only could Stay Asleep
TTITLE15=Fingertips
TTITLE16=I Don't Wanna
TTITLE17=Stop the World
TTITLE18=I care of the Blues
TTITLE19=3 Cigarettes in an Ashtray
TTITLE20=Honky Tonk Merry Go Round
TTITLE21=Pick me up on your way down
EXTD=YEAR: 1996 ID3G: 2
EXTT0=
EXTT1=
EXTT2=
EXTT3=
EXTT4=
EXTT5=
EXTT6=
EXTT7=
EXTT8=
EXTT9=
EXTT10=
EXTT11=
EXTT12=
EXTT13=
EXTT14=
EXTT15=
EXTT16=
EXTT17=
EXTT18=
EXTT19=
EXTT20=
EXTT21=
PLAYORDER=
